<svg xmlns="http://www.w3.org/2000/svg" width="95" height="95.001" viewBox="0 0 95 95.001">
  <g>
    <path fill="rgb(208,70,39)" fill-rule="evenodd" d="M95 47.50027645c0 26.3198253-21.33606557 47.50027645-47.5 47.50027645C21.18032787 95.1562915 0 73.82010176 0 47.50027645 0 21.18045114 21.33606557 0 47.5 0S95 21.33618975 95 47.50027645z"/>
    <g>
      <path fill="rgb(86,42,21)" fill-rule="evenodd" d="M34.7295082 41.89368644c0 3.89346528-2.18032787 6.8524989-4.82786886 6.8524989-2.64754098 0-4.82786885-3.11477223-4.82786885-6.8524989 0-3.89346528 2.18032787-6.8524989 4.82786885-6.8524989 2.64754099-.1557386 4.82786886 2.95903362 4.82786886 6.8524989z"/>
      <path fill="rgb(86,42,21)" fill-rule="evenodd" d="M71.17213115 41.89368644c0 3.89346528-2.18032787 6.8524989-4.82786885 6.8524989-2.64754099 0-4.82786886-3.11477223-4.82786886-6.8524989 0-3.89346528 2.18032787-6.8524989 4.82786886-6.8524989 2.64754098-.1557386 4.82786885 2.95903362 4.82786885 6.8524989z"/>
    </g>
    <g>
      <path fill="rgb(86,42,21)" fill-rule="evenodd" d="M37.68852459 37.37726671c-.62295082 0-1.09016393-.31147722-1.24590164-.93443166-1.40163934-4.82789695-6.3852459-8.56562363-12.14754098-9.18857807-.77868853-.15573861-1.24590164-.77869306-1.24590164-1.55738611.1557377-.77869306.77868852-1.2459089 1.55737705-1.2459089 6.85245901.77869306 12.6147541 5.29511279 14.32786885 11.21318002.1557377.77869306-.1557377 1.4016475-.93442623 1.71312472-.1557377-.1557386-.31147541 0-.31147541 0z"/>
      <path fill="rgb(86,42,21)" fill-rule="evenodd" d="M58.55737705 37.37726671h-.31147541c-.77868853-.1557386-1.09016394-.93443166-.93442623-1.71312472 1.71311475-5.91806723 7.47540984-10.43448696 14.32786885-11.21318002.77868853-.1557386 1.40163935.46721584 1.55737705 1.2459089.1557377.77869305-.46721311 1.4016475-1.24590164 1.5573861-5.76229508.62295445-10.74590164 4.36068113-12.14754098 9.18857808-.1557377.46721583-.62295082.93443166-1.24590164.93443166z"/>
    </g>
    <path fill="rgb(86,42,21)" fill-rule="evenodd" d="M57.62295082 72.10697703c-.46721312 0-1.09016393-.1557386-1.40163934-.62295444-2.02459017-1.86886334-4.67213115-2.95903362-7.63114755-3.11477223-3.2704918-.1557386-6.3852459.93443167-8.56557377 2.95903362-.93442623.77869305-2.18032786.77869305-3.1147541 0-.77868852-.93443167-.77868852-2.18034056 0-3.11477223 2.9590164-2.803295 7.31967214-4.36068111 11.68032787-4.2049425 4.04918033.1557386 7.63114755 1.71312472 10.43442623 4.2049425.93442623.77869306.93442623 2.18034056.1557377 3.11477223-.3114754.46721583-.93442622.77869305-1.55737704.77869305z"/>
  </g>
</svg>
