<svg xmlns="http://www.w3.org/2000/svg" width="97.9" height="74.1" viewBox="0 0 97.9 74.1">
  <g>
    <path fill="rgb(1,1,1)" fill-rule="evenodd" d="M70.19999695 10.8999939h21c3.6000061 0 6.6000061 3 6.69999695 6.6000061v49.8999939c0 3.7000122-3 6.7000122-6.69999695 6.7000122h-84.5C3 74.1000061 0 71.1000061 0 67.3999939V17.6000061c0-3.7000122 3-6.7000122 6.69999695-6.7000122h21l1.6000061-6C30 2 32.6000061 0 35.6000061 0h26.69999695c3 0 5.5 2 6.30000305 4.8999939l1.59999085 6zm-63.5 56.50003051h84.5V17.5h-23.5c-1.5 0-2.90000916-1-3.19999695-2.3999939l-2.2000122-8.3999939H35.69999694L33.5 15.1000061C33.19999695 16.5 31.8999939 17.5 30.30000305 17.5H6.69999695v49.90002441z"/>
    <path fill="rgb(1,1,1)" fill-rule="evenodd" d="M26 40.8999939C26 28.2000122 36.19999695 18 48.8999939 18c12.7000122 0 22.90000915 10.2999878 22.90000915 23S61.6000061 63.8999939 48.8999939 63.8999939c-12.69999695 0-22.8999939-10.2999878-22.8999939-23zM32.69999695 41c0 8.90002441 7.19999695 16.2000122 16.19999695 16.2000122s16.2000122-7.39999389 16.2000122-16.29998779c0-8.90002441-7.2000122-16.2000122-16.2000122-16.2000122S32.69999695 32.1000061 32.69999695 41z"/>
  </g>
</svg>
