<svg xmlns="http://www.w3.org/2000/svg" width="15" height="15" viewBox="0 0 15 15">
  <g opacity=".8">
    <path fill="rgb(54,59,68)" fill-rule="evenodd" d="M1.30081367 6.84033203C1.30081367 3.06495667 4.36991882 0 8.15040588 0c3.78049088 0 6.84959793 3.06495667 6.84959793 6.82002258 0 3.77537537-3.06910705 6.84033203-6.84959793 6.84033203-1.60569 0-3.06910324-.54803466-4.22764206-1.46144104L1.15853692 15 0 13.84303284l2.76422882-2.78079224c-.9146347-1.15696716-1.46341515-2.63868713-1.46341515-4.22190857zm1.62601662-.02030945c0 2.88227845 2.33739853 5.21650696 5.2235794 5.21650696 2.88617707 0 5.2235756-2.31393433 5.2235756-5.19621277 0-2.88226318-2.33739853-5.21650696-5.2235756-5.23680115-2.88618087 0-5.2235794 2.33422852-5.2235794 5.21650696z"/>
  </g>
</svg>
