<svg xmlns="http://www.w3.org/2000/svg" width="95" height="95" viewBox="0 0 95 95">
  <g>
    <ellipse cx="47.5" cy="47.5" fill="rgb(255,206,7)" rx="47.5" ry="47.5"/>
    <g>
      <path fill="rgb(86,42,21)" fill-rule="evenodd" d="M73.0409836 33.79508197c0 1.40163934-.3114754 2.80327869-.77868852 3.89344262-.3114754.77868852-1.24590164 1.09016393-1.86885246.62295082-.62295082-.46721311-1.55737705-.77868852-2.33606557-.77868852-.77868853 0-1.55737705.3114754-2.33606557.77868852-.62295082.46721311-1.55737705.1557377-1.86885246-.62295082-.46721312-1.09016393-.77868853-2.49180328-.77868853-3.89344262 0-4.04918033 2.33606558-7.16393443 5.13934426-7.16393443 2.49180328 0 4.82786886 3.1147541 4.82786886 7.16393443z"/>
      <path fill="rgb(86,42,21)" fill-rule="evenodd" d="M32.70491803 33.79508197c0 1.40163934-.3114754 2.80327869-.77868852 3.89344262-.31147541.77868852-1.24590164 1.09016393-1.86885246.62295082-.62295082-.46721311-1.55737705-.77868852-2.33606557-.77868852-.77868853 0-1.55737705.3114754-2.33606558.77868852-.62295082.46721311-1.55737705.1557377-1.86885246-.62295082-.46721311-1.09016393-.77868852-2.49180328-.77868852-3.89344262 0-4.04918033 2.33606557-7.16393443 5.13934426-7.16393443 2.64754098 0 4.82786885 3.1147541 4.82786885 7.16393443z"/>
    </g>
    <path fill="rgb(86,42,21)" fill-rule="evenodd" d="M38.12325993 63.99789564c.46721311 5.3e-7 1.09016376.15573984 1.40163864.62295602 2.02458807 1.86886561 4.67212783 2.95903887 7.63114404 3.1147808 3.27049163.15574229 6.38524696-.9344245 8.5655771-2.959024.9344271-.778692 2.18032874-.7786906 3.1147541.0000035.77868747.93443255.77868607 2.18034144-.0000035 3.11477223-2.95901954 2.80329168-7.31967703 4.3606729-11.6803326 4.20492939-4.04918015-.15574316-7.63114561-1.7131333-10.4344215-4.20495423-.93442535-.7786941-.93442378-2.1803416-.1557342-3.1147724.31147593-.46721548.9344271-.778692 1.55737792-.7786913z"/>
  </g>
</svg>
